# xmcd
#
# Track frame offsets:
#   150
#   17736
#   28614
#   46251
#   61410
#   73536
#   87384
#   100984
#   113421
#   130743
#   146612
#   159924
#   174345
#   193359
#   208546
#   231566
#   250243
#   261798
#   278972
#   292486
#
# Disc length: 4100 seconds
#
# Revision: 0
# Processed by: cddbd v1.5.1PL0 Copyright (c) Steve Scherf et al.
# Submitted via: Media_Universe 3.0
#
DISCID=2b100214
DTITLE=Mark Chesnutt - Long Necks And Short Stories - Almost Goodbye
DYEAR=1900
DGENRE=Country
TTITLE0=Old Country
TTITLE1=Old Flames Have New Names'
TTITLE2=Ill Think Of Something
TTITLE3=Its Not Over (if im not over you)
TTITLE4=Uptown Downtown (miserys all the same)
TTITLE5=Bubba Shot The Jukebox
TTITLE6=Postpone The Pain
TTITLE7=Talking To Hank
TTITLE8=Im Not Getting Any Better At Goodbyes
TTITLE9=Who Will The Next Fool Be
TTITLE10=It Sure Is Monday
TTITLE11=Woman (sensuous woman)
TTITLE12=Almost Goodbye
TTITLE13=I Just Wanted You To Know
TTITLE14=April's Fool
TTITLE15=Texas Is Bigger Than It Used To Be
TTITLE16=My Hearts Too Broke (to pay attention)
TTITLE17=Vickie Vance Gotta Dance
TTITLE18=Till A Better Memory Comes Along
TTITLE19=The Will
EXTD=
EXTT0=
EXTT1=
EXTT2=
EXTT3=
EXTT4=
EXTT5=
EXTT6=
EXTT7=
EXTT8=
EXTT9=
EXTT10=
EXTT11=
EXTT12=
EXTT13=
EXTT14=
EXTT15=
EXTT16=
EXTT17=
EXTT18=
EXTT19=
PLAYORDER=
